<?xml version="1.0" encoding="utf-8"?>
<!-- Generator: Adobe Illustrator 23.0.3, SVG Export Plug-In . SVG Version: 6.00 Build 0)  -->
<svg version="1.1" id="Capa_1" xmlns="http://www.w3.org/2000/svg" xmlns:xlink="http://www.w3.org/1999/xlink" x="0px" y="0px"
	 viewBox="0 0 512 512" style="enable-background:new 0 0 512 512;" xml:space="preserve">
<style type="text/css">
	.st0{fill:url(#SVGID_1_);}
	.st1{fill:url(#SVGID_2_);}
	.st2{fill:url(#SVGID_3_);}
	.st3{fill:url(#SVGID_4_);}
	.st4{fill:url(#SVGID_5_);}
	.st5{fill:url(#SVGID_6_);}
	.st6{fill:url(#SVGID_7_);}
	.st7{fill:url(#SVGID_8_);}
	.st8{fill:url(#SVGID_9_);}
	.st9{fill:url(#SVGID_10_);}
	.st10{fill:url(#SVGID_11_);}
	.st11{fill:url(#SVGID_12_);}
	.st12{fill:url(#SVGID_13_);}
	.st13{fill:url(#SVGID_14_);}
	.st14{fill:url(#SVGID_15_);}
	.st15{fill:url(#SVGID_16_);}
	.st16{fill:url(#SVGID_17_);}
	.st17{fill:url(#SVGID_18_);}
	.st18{fill:url(#SVGID_19_);}
	.st19{fill:url(#SVGID_20_);}
	.st20{fill:url(#SVGID_21_);}
	.st21{fill:url(#SVGID_22_);}
	.st22{fill:url(#SVGID_23_);}
	.st23{fill:url(#SVGID_24_);}
	.st24{fill:url(#SVGID_25_);}
	.st25{fill:#9D9AE8;}
	.st26{fill:#FCC69D;}
	.st27{fill:#2D2A2B;}
	.st28{fill:#93CE92;}
	.st29{fill:#253E59;}
	.st30{fill:#DAD0D3;}
	.st31{fill:#FCFCFC;}
	.st32{fill:#F9F9F9;}
	.st33{fill:#ED4D67;}
	.st34{fill:#A30D2A;}
	.st35{fill:url(#SVGID_26_);}
	.st36{fill:url(#SVGID_27_);}
	.st37{fill:url(#SVGID_28_);}
	.st38{fill:url(#SVGID_29_);}
</style>
<linearGradient id="SVGID_1_" gradientUnits="userSpaceOnUse" x1="130.7349" y1="256" x2="381.2651" y2="256">
	<stop  offset="0" style="stop-color:#F9009A"/>
	<stop  offset="0.995" style="stop-color:#083DBF"/>
</linearGradient>
<path class="st0" d="M380.9,105.6C379.2,89.8,368.3,77.8,355,77c-12.9-0.7-20.7,6.6-25.3,23.9c-6.3,23.6-12.6,47.1-19,71.1
	c-12.5-6.1-23.7-14.5-37.6-5.9c-3.5,2.1-4.4-1.8-6-3.7c-16.1-17.7-37.9-18.6-56.4-1c-1.6-5.4-2.9-9.4-4.1-13.4
	c-8.4-28.7-16.8-57.3-25.1-86c-2.6-9.2-7-16.6-17.2-18.4c-9.9-1.7-17.2,3.1-23.4,10.2c-8.1,9.4-10.9,20.5-9.8,32.5
	c1,10.4,3,20.7,4.3,31.1c6.9,55,20,109.4,21.1,165.1c0.6,31.7,7.8,60.3,26.5,86.3c6.7,9.4,10.3,20.9,0.1,31.5
	c-2.3,2.4-1.6,5.9-1.6,8.9c0,15.9,0.3,31.9-0.1,47.8c-0.2,7.9,2.8,11.6,10.7,11.6c47.8-0.1,95.6-0.1,143.3-0.1
	c6.9,0,9.6-3.3,9.6-10.1c-0.2-17.1,0.1-34.2,0-51.3c0-4.4-0.9-9.6-6.3-9.5c-9.7,0.1-7.1-5.9-6-10.9c1.4-6.5,3.5-12.8,7.5-18.2
	c7.7-10.4,11.2-22.2,11.6-34.8c2-63.1,10.7-125.2,23.8-186.9C378.3,133.4,382.5,119.8,380.9,105.6z M274.2,189.5
	c1.8-6.8,4.8-14,14.1-11.9c8.5,1.9,15.8,6.5,15.2,16.2c-0.7,9.6-3.3,19-5.2,28.5c-0.5,2.3-1.6,4.7-4.7,2.8
	c-8.2-4.8-17.1-3.1-26.6-2.2C269.4,211.3,271.4,200.3,274.2,189.5z M220.2,192.8c0.6-3.8,1.4-7.6,2-11.4c2.9-16.8,6.7-20,20.3-17.8
	c12,2,19.4,13,16.8,26.1c-3.6,17.8-7.7,35.5-11.7,53.5c-1.9-0.2-2.3-0.2-2.6-0.3C216.2,227.2,215,224.8,220.2,192.8z M328.5,452.1
	c-6.4,6.5-19.8,1.7-30.2,2c-12,0.3-24,0.1-36,0.1c-19.4,0-38.8-0.2-58.1,0.1c-6.6,0.1-8.4-2.1-8.6-8.6c-1.4-34.1-1.5-34.1,31.8-34.1
	c31,0,62,0.3,93-0.2c8.2-0.1,11,2.4,10.2,10.4C329.6,432.2,334.9,445.7,328.5,452.1z M365.8,120.8c-14.6,70.8-27.2,141.8-28.8,214.4
	c-0.2,7.9-2.5,15.4-6.9,22c-6.9,10.2-11.4,21.2-12.7,33.4c-0.6,5.4-2.8,7-8.1,6.9c-33-0.2-66-0.2-99,0.1c-6.3,0.1-8.3-2-7.6-7.9
	c1.5-13.6-4.2-24.9-11.9-35.5c-11.9-16.5-18.9-35-19.2-55.3c-0.7-63.3-14.9-124.8-22.8-187.1c-1-8.1-2.4-16.1-3.5-24.2
	c-0.9-6.3-0.2-12.4,2.6-18.2c2.6-5.4,6-11.1,12.3-11c7,0.1,7,7.4,8.4,12.3c11.5,38.7,22.5,77.5,34.3,116.1c3.4,11-0.2,21.5-0.5,32.3
	c-0.2,6.4-4.9,2.7-7.8,2.1c-5.1-1.1-10.8-2.5-12.7,4c-2.1,7.6,4.3,8.8,9.6,10.2c16.9,4.5,32.7,11.1,48,22.7
	c-8,4.3-14.6,4.3-21.2,4.6c-4.3,0.2-7.5,2.3-7.5,7.1c0,4.9,3.3,6.8,7.6,6.9c14.4,0.2,28-1.1,36.5-15.4c3.5-6,8.2-11.3,11.9-17.2
	c3.7-5.9,8.6-9.1,15.6-7.4c6.8,1.6,10,6.9,11.9,13.1c0.3,1.1,0.4,2.3,0.5,3.4c2.3,27-20.5,66.1-45.3,77.5
	c-6.8,3.2-13.9,4.9-21.4,3.7c-4.9-0.8-9.9-1.1-10.8,5.4c-1,7,4.5,8.3,9.6,9c16,2.1,29.6-4.3,42.4-12.9c1.6-1.1,3.1-2.2,5.8-4.1
	c0.6,7.5-3.1,12.4-5.6,17.6c-2.4,4.8-3.2,9,2.3,11.8c5.1,2.6,8.1-0.9,10.3-4.8c4.8-8.1,9.4-16.8,9.3-26.1
	c-0.1-18.1,6.4-34.3,12.7-50.3c7.4-18.6,3.1-38.4,8.4-57.2c11.3-39.9,21.1-80.3,31.7-120.4c1.2-4.7,2.2-10.4,8.9-10.7
	c6.7-0.3,9.3,4.7,11.7,9.7C367.8,107.6,367.2,114.2,365.8,120.8z"/>
</svg>
